<svg id="SvgjsSvg1014" width="288" height="288" xmlns="http://www.w3.org/2000/svg" version="1.1" xmlns:xlink="http://www.w3.org/1999/xlink" xmlns:svgjs="http://svgjs.com/svgjs"><defs id="SvgjsDefs1015"></defs><g id="SvgjsG1016"><!--?xml version="1.0" encoding="UTF-8"?--><svg xmlns="http://www.w3.org/2000/svg" xmlns:xlink="http://www.w3.org/1999/xlink" version="1.1" x="0px" y="0px" width="288" height="288" viewBox="0 0 100 100" xml:space="preserve"><g id="_x37_7_Essential_Icons" fill="#41d336" class="color000 svgShape"><path id="Tick" d="M50 12c-21 0-38 17-38 38s17 38 38 38 38-17 38-38-17-38-38-38zm0 72c-18.8 0-34-15.2-34-34s15.2-34 34-34 34 15.2 34 34-15.2 34-34 34zm22.9-46.9c-.8-.8-2-.8-2.8 0L44.6 62.7 33.9 52c-.8-.8-2.1-.8-2.8 0-.8.8-.8 2.1 0 2.8l12.1 12.1c.4.4.9.6 1.4.6.5 0 1-.2 1.4-.6l26.9-27c.8-.8.8-2 0-2.8z" fill="#41d336" class="color000 svgShape"></path></g><g id="Info" fill="#41d336" class="color000 svgShape"><path fill="#0000ff" d="M1644-1210V474H-140v-1684h1784m8-8H-148V482h1800v-1700z" id="BORDER" class="color00F svgShape"></path></g><metadata><rdf:rdf xmlns:rdf="http://www.w3.org/1999/02/22-rdf-syntax-ns#" xmlns:rdfs="http://www.w3.org/2000/01/rdf-schema#" xmlns:dc="http://purl.org/dc/elements/1.1/"><rdf:description about="https://iconscout.com/legal#licenses" dc:title="essential,s,tick" dc:description="essential,s,tick" dc:publisher="Iconscout" dc:date="2017-09-15" dc:format="image/svg+xml" dc:language="en"><dc:creator><rdf:bag><rdf:li>Bryn Taylor</rdf:li></rdf:bag></dc:creator></rdf:description></rdf:rdf></metadata></svg></g></svg>